<svg width="72" height="20" viewBox="0 0 72 20" fill="none" xmlns="http://www.w3.org/2000/svg">
<path d="M22.5919 2.00006H1.82894C0.818815 2.00006 0 2.81888 0 3.829V16.171C0 17.1811 0.818815 18 1.82894 18H22.5919C23.602 18 24.4209 17.1812 24.4209 16.171V3.829C24.4209 2.81888 23.6021 2.00006 22.5919 2.00006Z" fill="#F5F5F5"/>
<path d="M0.100586 3.23084H24.3202C24.0724 2.51457 23.3924 2.00006 22.5919 2.00006H1.82894C1.02839 2.00006 0.348467 2.51457 0.100586 3.23084Z" fill="#FF4B55"/>
<path d="M24.4209 6.9231H0V8.15382H24.4209V6.9231Z" fill="#FF4B55"/>
<path d="M24.4209 4.46136H0V5.69209H24.4209V4.46136Z" fill="#FF4B55"/>
<path d="M0 10.1943C0 10.4268 0.188546 10.6154 0.421069 10.6154H24.4209V9.38458H0V10.1943Z" fill="#FF4B55"/>
<path d="M24.4209 14.308H0V15.5388H24.4209V14.308Z" fill="#FF4B55"/>
<path d="M24.3203 16.7693H0.100586C0.348467 17.4856 1.02844 18.0001 1.82894 18.0001H22.5919C23.3925 18.0001 24.0724 17.4856 24.3203 16.7693Z" fill="#FF4B55"/>
<path d="M24.4209 11.8464H0V13.0772H24.4209V11.8464Z" fill="#FF4B55"/>
<path d="M0.421069 10.6154H10.9473C11.1799 10.6154 11.3684 10.4268 11.3684 10.1943V2.42107C11.3684 2.1885 11.1799 2 10.9473 2H1.82894C0.818815 2.00005 0 2.81886 0 3.82899V10.1943C0 10.4269 0.188546 10.6154 0.421069 10.6154Z" fill="#41479B"/>
<path d="M1.18224 2.9666L1.27544 3.2461L1.57006 3.24835C1.60822 3.24868 1.62401 3.29733 1.59334 3.31999L1.35633 3.49499L1.44524 3.77587C1.45678 3.81222 1.41534 3.84236 1.38428 3.82014L1.14461 3.64886L0.90493 3.82018C0.873879 3.84241 0.832526 3.81227 0.843973 3.77592L0.93288 3.49503L0.695874 3.32003C0.665205 3.29733 0.680992 3.24868 0.71915 3.24839L1.01377 3.24615L1.10697 2.96665C1.11899 2.9304 1.17013 2.9304 1.18224 2.9666Z" fill="#F5F5F5"/>
<path d="M1.18224 4.4286L1.27544 4.7081L1.57006 4.71035C1.60822 4.71068 1.62401 4.75928 1.59334 4.78199L1.35633 4.95703L1.44524 5.23792C1.45678 5.27427 1.41534 5.30441 1.38428 5.28218L1.14461 5.1109L0.90493 5.28223C0.873879 5.30441 0.832526 5.27431 0.843973 5.23797L0.93288 4.95708L0.695874 4.78203C0.665205 4.75933 0.680992 4.71073 0.71915 4.71039L1.01377 4.70815L1.10697 4.42865C1.11899 4.39244 1.17013 4.39244 1.18224 4.4286Z" fill="#F5F5F5"/>
<path d="M1.18224 5.89073L1.27544 6.17024L1.57006 6.17248C1.60822 6.17281 1.62401 6.22142 1.59334 6.24412L1.35633 6.41917L1.44524 6.70005C1.45678 6.7364 1.41534 6.76654 1.38428 6.74432L1.14461 6.57304L0.90493 6.74437C0.873879 6.76654 0.832526 6.7365 0.843973 6.7001L0.93288 6.41921L0.695874 6.24417C0.665205 6.22146 0.680992 6.17286 0.71915 6.17253L1.01377 6.17028L1.10697 5.89078C1.11899 5.85453 1.17013 5.85453 1.18224 5.89073Z" fill="#F5F5F5"/>
<path d="M1.18224 7.35283L1.27544 7.63233L1.57006 7.63457C1.60822 7.63491 1.62401 7.68356 1.59334 7.70622L1.35633 7.88126L1.44524 8.16215C1.45678 8.1985 1.41534 8.22864 1.38428 8.20641L1.14461 8.03513L0.90493 8.20646C0.873879 8.22864 0.832526 8.19854 0.843973 8.1622L0.93288 7.88131L0.695874 7.70626C0.665205 7.68366 0.680992 7.63496 0.71915 7.63462L1.01377 7.63238L1.10697 7.35288C1.11899 7.31663 1.17013 7.31663 1.18224 7.35283Z" fill="#F5F5F5"/>
<path d="M1.18224 8.81495L1.27544 9.09446L1.57006 9.0967C1.60822 9.09703 1.62401 9.14564 1.59334 9.16834L1.35633 9.34339L1.44524 9.62427C1.45678 9.66062 1.41534 9.69076 1.38428 9.66854L1.14461 9.49726L0.90493 9.66859C0.873879 9.69076 0.832526 9.66067 0.843973 9.62432L0.93288 9.34343L0.695874 9.16839C0.665205 9.14568 0.680992 9.09708 0.71915 9.09675L1.01377 9.0945L1.10697 8.815C1.11899 8.7788 1.17013 8.7788 1.18224 8.81495Z" fill="#F5F5F5"/>
<path d="M2.31701 3.6833L2.41021 3.96281L2.70483 3.96505C2.74299 3.96539 2.75878 4.01404 2.72811 4.03669L2.4911 4.21174L2.58001 4.49263C2.59155 4.52897 2.5501 4.55912 2.51905 4.53689L2.27937 4.36556L2.0397 4.53689C2.00864 4.55907 1.96729 4.52897 1.97874 4.49263L2.06765 4.21174L1.83064 4.03669C1.79997 4.01399 1.81576 3.96539 1.85392 3.96505L2.14854 3.96281L2.24174 3.6833C2.25376 3.64715 2.30494 3.64715 2.31701 3.6833Z" fill="#F5F5F5"/>
<path d="M2.31701 5.1455L2.41021 5.425L2.70483 5.42725C2.74299 5.42758 2.75878 5.47623 2.72811 5.49889L2.4911 5.67393L2.58001 5.95482C2.59155 5.99117 2.5501 6.02131 2.51905 5.99909L2.27937 5.82776L2.0397 5.99909C2.00864 6.02126 1.96729 5.99122 1.97874 5.95482L2.06765 5.67393L1.83064 5.49889C1.79997 5.47628 1.81576 5.42758 1.85392 5.42725L2.14854 5.425L2.24174 5.1455C2.25376 5.1093 2.30494 5.1093 2.31701 5.1455Z" fill="#F5F5F5"/>
<path d="M2.31701 6.6076L2.41021 6.8871L2.70483 6.88934C2.74299 6.88968 2.75878 6.93828 2.72811 6.96098L2.4911 7.13603L2.58001 7.41692C2.59155 7.45327 2.5501 7.48341 2.51905 7.46118L2.27937 7.28985L2.0397 7.46118C2.00864 7.48336 1.96729 7.45327 1.97874 7.41692L2.06765 7.13603L1.83064 6.96098C1.79997 6.93828 1.81576 6.88968 1.85392 6.88934L2.14854 6.8871L2.24174 6.6076C2.25376 6.57139 2.30494 6.57139 2.31701 6.6076Z" fill="#F5F5F5"/>
<path d="M2.31701 8.06966L2.41021 8.34916L2.70483 8.3514C2.74299 8.35174 2.75878 8.40034 2.72811 8.42304L2.4911 8.59809L2.58001 8.87898C2.59155 8.91532 2.5501 8.94547 2.51905 8.92324L2.27937 8.75191L2.0397 8.92324C2.00864 8.94547 1.96729 8.91532 1.97874 8.87898L2.06765 8.59809L1.83064 8.42304C1.79997 8.40034 1.81576 8.35174 1.85392 8.3514L2.14854 8.34916L2.24174 8.06966C2.25376 8.0335 2.30494 8.0335 2.31701 8.06966Z" fill="#F5F5F5"/>
<path d="M3.45177 2.96648L3.54497 3.24599L3.83959 3.24823C3.87775 3.24856 3.89354 3.29721 3.86287 3.31987L3.62586 3.49487L3.71477 3.77576C3.72631 3.8121 3.68487 3.84225 3.65382 3.82002L3.41414 3.64869L3.17446 3.82002C3.14341 3.84225 3.10206 3.8121 3.1135 3.77576L3.20241 3.49487L2.96541 3.31987C2.93474 3.29717 2.95052 3.24852 2.98868 3.24823L3.28331 3.24599L3.37651 2.96648C3.38852 2.93028 3.4397 2.93028 3.45177 2.96648Z" fill="#F5F5F5"/>
<path d="M3.45177 4.42861L3.54497 4.70811L3.83959 4.71035C3.87775 4.71069 3.89354 4.75929 3.86287 4.78199L3.62586 4.95704L3.71477 5.23793C3.72631 5.27428 3.68487 5.30442 3.65382 5.28219L3.41414 5.11086L3.17446 5.28219C3.14341 5.30437 3.10206 5.27428 3.1135 5.23793L3.20241 4.95704L2.96541 4.78199C2.93474 4.75929 2.95052 4.71069 2.98868 4.71035L3.28331 4.70811L3.37651 4.42861C3.38852 4.39245 3.4397 4.39245 3.45177 4.42861Z" fill="#F5F5F5"/>
<path d="M3.45177 5.89074L3.54497 6.17024L3.83959 6.17249C3.87775 6.17282 3.89354 6.22142 3.86287 6.24413L3.62586 6.41917L3.71477 6.70006C3.72631 6.73641 3.68487 6.76655 3.65382 6.74432L3.41414 6.573L3.17446 6.74432C3.14341 6.7665 3.10206 6.73645 3.1135 6.70006L3.20241 6.41917L2.96541 6.24413C2.93474 6.22142 2.95052 6.17282 2.98868 6.17249L3.28331 6.17024L3.37651 5.89074C3.38852 5.85454 3.4397 5.85454 3.45177 5.89074Z" fill="#F5F5F5"/>
<path d="M3.45177 7.3529L3.54497 7.6324L3.83959 7.63464C3.87775 7.63498 3.89354 7.68363 3.86287 7.70628L3.62586 7.88133L3.71477 8.16222C3.72631 8.19857 3.68487 8.22871 3.65382 8.20648L3.41414 8.03516L3.17446 8.20648C3.14341 8.22866 3.10206 8.19857 3.1135 8.16222L3.20241 7.88133L2.96541 7.70628C2.93474 7.68368 2.95052 7.63498 2.98868 7.63464L3.28331 7.6324L3.37651 7.3529C3.38852 7.31669 3.4397 7.31669 3.45177 7.3529Z" fill="#F5F5F5"/>
<path d="M3.45177 8.81496L3.54497 9.09446L3.83959 9.0967C3.87775 9.09704 3.89354 9.14564 3.86287 9.16834L3.62586 9.34339L3.71477 9.62428C3.72631 9.66063 3.68487 9.69077 3.65382 9.66854L3.41414 9.49722L3.17446 9.66854C3.14341 9.69072 3.10206 9.66063 3.1135 9.62428L3.20241 9.34339L2.96541 9.16834C2.93474 9.14564 2.95052 9.09704 2.98868 9.0967L3.28331 9.09446L3.37651 8.81496C3.38852 8.7788 3.4397 8.7788 3.45177 8.81496Z" fill="#F5F5F5"/>
<path d="M4.58703 3.6833L4.68023 3.96281L4.97485 3.96505C5.01301 3.96539 5.0288 4.01404 4.99813 4.03669L4.76112 4.21174L4.85003 4.49263C4.86157 4.52897 4.82012 4.55912 4.78907 4.53689L4.54939 4.36556L4.30972 4.53689C4.27866 4.55907 4.23731 4.52897 4.24876 4.49263L4.33767 4.21174L4.10066 4.03669C4.06999 4.01399 4.08578 3.96539 4.12394 3.96505L4.41856 3.96281L4.51176 3.6833C4.52373 3.64715 4.57496 3.64715 4.58703 3.6833Z" fill="#F5F5F5"/>
<path d="M4.58703 5.1455L4.68023 5.425L4.97485 5.42725C5.01301 5.42758 5.0288 5.47623 4.99813 5.49889L4.76112 5.67393L4.85003 5.95482C4.86157 5.99117 4.82012 6.02131 4.78907 5.99909L4.54939 5.82776L4.30972 5.99909C4.27866 6.02126 4.23731 5.99122 4.24876 5.95482L4.33767 5.67393L4.10066 5.49889C4.06999 5.47628 4.08578 5.42758 4.12394 5.42725L4.41856 5.425L4.51176 5.1455C4.52373 5.1093 4.57496 5.1093 4.58703 5.1455Z" fill="#F5F5F5"/>
<path d="M4.58703 6.6076L4.68023 6.8871L4.97485 6.88934C5.01301 6.88968 5.0288 6.93828 4.99813 6.96098L4.76112 7.13603L4.85003 7.41692C4.86157 7.45327 4.82012 7.48341 4.78907 7.46118L4.54939 7.28985L4.30972 7.46118C4.27866 7.48336 4.23731 7.45327 4.24876 7.41692L4.33767 7.13603L4.10066 6.96098C4.06999 6.93828 4.08578 6.88968 4.12394 6.88934L4.41856 6.8871L4.51176 6.6076C4.52373 6.57139 4.57496 6.57139 4.58703 6.6076Z" fill="#F5F5F5"/>
<path d="M4.58703 8.06966L4.68023 8.34916L4.97485 8.3514C5.01301 8.35174 5.0288 8.40034 4.99813 8.42304L4.76112 8.59809L4.85003 8.87898C4.86157 8.91532 4.82012 8.94547 4.78907 8.92324L4.54939 8.75191L4.30972 8.92324C4.27866 8.94547 4.23731 8.91532 4.24876 8.87898L4.33767 8.59809L4.10066 8.42304C4.06999 8.40034 4.08578 8.35174 4.12394 8.3514L4.41856 8.34916L4.51176 8.06966C4.52373 8.0335 4.57496 8.0335 4.58703 8.06966Z" fill="#F5F5F5"/>
<path d="M5.72184 2.96648L5.81504 3.24598L6.10967 3.24822C6.14782 3.24856 6.16361 3.29721 6.13294 3.31986L5.89594 3.49486L5.98484 3.77575C5.99639 3.8121 5.95494 3.84224 5.92389 3.82002L5.68416 3.64874L5.44448 3.82006C5.41343 3.84229 5.37208 3.81215 5.38352 3.7758L5.47243 3.49491L5.23542 3.31991C5.20476 3.29721 5.22054 3.24856 5.2587 3.24827L5.55333 3.24603L5.64653 2.96652C5.65859 2.93027 5.70977 2.93027 5.72184 2.96648Z" fill="#F5F5F5"/>
<path d="M5.72184 4.42861L5.81504 4.70811L6.10967 4.71035C6.14782 4.71069 6.16361 4.75929 6.13294 4.78199L5.89594 4.95704L5.98484 5.23793C5.99639 5.27428 5.95494 5.30442 5.92389 5.28219L5.68416 5.11086L5.44448 5.28219C5.41343 5.30437 5.37208 5.27428 5.38352 5.23793L5.47243 4.95704L5.23542 4.78199C5.20476 4.75929 5.22054 4.71069 5.2587 4.71035L5.55333 4.70811L5.64653 4.42861C5.65859 4.39245 5.70977 4.39245 5.72184 4.42861Z" fill="#F5F5F5"/>
<path d="M5.72184 5.89074L5.81504 6.17025L6.10967 6.17249C6.14782 6.17282 6.16361 6.22143 6.13294 6.24413L5.89594 6.41918L5.98484 6.70007C5.99639 6.73641 5.95494 6.76656 5.92389 6.74433L5.68416 6.57295L5.44448 6.74428C5.41343 6.76646 5.37208 6.73636 5.38352 6.70002L5.47243 6.41913L5.23542 6.24408C5.20476 6.22138 5.22054 6.17278 5.2587 6.17244L5.55333 6.1702L5.64653 5.8907C5.65859 5.85454 5.70977 5.85454 5.72184 5.89074Z" fill="#F5F5F5"/>
<path d="M5.72184 7.3529L5.81504 7.6324L6.10967 7.63464C6.14782 7.63498 6.16361 7.68363 6.13294 7.70628L5.89594 7.88133L5.98484 8.16222C5.99639 8.19857 5.95494 8.22871 5.92389 8.20648L5.68416 8.03516L5.44448 8.20648C5.41343 8.22866 5.37208 8.19857 5.38352 8.16222L5.47243 7.88133L5.23542 7.70628C5.20476 7.68368 5.22054 7.63498 5.2587 7.63464L5.55333 7.6324L5.64653 7.3529C5.65859 7.31669 5.70977 7.31669 5.72184 7.3529Z" fill="#F5F5F5"/>
<path d="M5.72184 8.81496L5.81504 9.09446L6.10967 9.0967C6.14782 9.09704 6.16361 9.14564 6.13294 9.16834L5.89594 9.34339L5.98484 9.62428C5.99639 9.66063 5.95494 9.69077 5.92389 9.66854L5.68416 9.49722L5.44448 9.66854C5.41343 9.69072 5.37208 9.66063 5.38352 9.62428L5.47243 9.34339L5.23542 9.16834C5.20476 9.14564 5.22054 9.09704 5.2587 9.0967L5.55333 9.09446L5.64653 8.81496C5.65859 8.7788 5.70977 8.7788 5.72184 8.81496Z" fill="#F5F5F5"/>
<path d="M6.85656 3.6833L6.94975 3.96281L7.24438 3.96505C7.28254 3.96539 7.29832 4.01404 7.26765 4.03669L7.03065 4.21174L7.11956 4.49263C7.1311 4.52897 7.08965 4.55912 7.0586 4.53689L6.81892 4.36556L6.57925 4.53689C6.54819 4.55907 6.50684 4.52897 6.51829 4.49263L6.6072 4.21174L6.37019 4.03669C6.33952 4.01399 6.35531 3.96539 6.39347 3.96505L6.68809 3.96281L6.78129 3.6833C6.79336 3.64715 6.84449 3.64715 6.85656 3.6833Z" fill="#F5F5F5"/>
<path d="M6.85656 5.1455L6.94975 5.425L7.24438 5.42725C7.28254 5.42758 7.29832 5.47623 7.26765 5.49889L7.03065 5.67393L7.11956 5.95482C7.1311 5.99117 7.08965 6.02131 7.0586 5.99909L6.81892 5.82776L6.57925 5.99909C6.54819 6.02126 6.50684 5.99122 6.51829 5.95482L6.6072 5.67393L6.37019 5.49889C6.33952 5.47628 6.35531 5.42758 6.39347 5.42725L6.68809 5.425L6.78129 5.1455C6.79336 5.1093 6.84449 5.1093 6.85656 5.1455Z" fill="#F5F5F5"/>
<path d="M6.85656 6.6076L6.94975 6.8871L7.24438 6.88934C7.28254 6.88968 7.29832 6.93828 7.26765 6.96098L7.03065 7.13603L7.11956 7.41692C7.1311 7.45327 7.08965 7.48341 7.0586 7.46118L6.81892 7.28985L6.57925 7.46118C6.54819 7.48336 6.50684 7.45327 6.51829 7.41692L6.6072 7.13603L6.37019 6.96098C6.33952 6.93828 6.35531 6.88968 6.39347 6.88934L6.68809 6.8871L6.78129 6.6076C6.79336 6.57139 6.84449 6.57139 6.85656 6.6076Z" fill="#F5F5F5"/>
<path d="M6.85656 8.06966L6.94975 8.34916L7.24438 8.3514C7.28254 8.35174 7.29832 8.40034 7.26765 8.42304L7.03065 8.59809L7.11956 8.87898C7.1311 8.91532 7.08965 8.94547 7.0586 8.92324L6.81892 8.75191L6.57925 8.92324C6.54819 8.94547 6.50684 8.91532 6.51829 8.87898L6.6072 8.59809L6.37019 8.42304C6.33952 8.40034 6.35531 8.35174 6.39347 8.3514L6.68809 8.34916L6.78129 8.06966C6.79336 8.0335 6.84449 8.0335 6.85656 8.06966Z" fill="#F5F5F5"/>
<path d="M7.99132 2.96648L8.08452 3.24599L8.37914 3.24823C8.4173 3.24856 8.43309 3.29721 8.40242 3.31987L8.16542 3.49487L8.25432 3.77576C8.26587 3.8121 8.22442 3.84225 8.19337 3.82002L7.95369 3.64869L7.71401 3.82002C7.68296 3.84225 7.64161 3.8121 7.65305 3.77576L7.74196 3.49487L7.50496 3.31987C7.47429 3.29717 7.49007 3.24852 7.52823 3.24823L7.82286 3.24599L7.91606 2.96648C7.92803 2.93028 7.97925 2.93028 7.99132 2.96648Z" fill="#F5F5F5"/>
<path d="M7.99132 4.42861L8.08452 4.70811L8.37914 4.71035C8.4173 4.71069 8.43309 4.75929 8.40242 4.78199L8.16542 4.95704L8.25432 5.23793C8.26587 5.27428 8.22442 5.30442 8.19337 5.28219L7.95369 5.11086L7.71401 5.28219C7.68296 5.30437 7.64161 5.27428 7.65305 5.23793L7.74196 4.95704L7.50496 4.78199C7.47429 4.75929 7.49007 4.71069 7.52823 4.71035L7.82286 4.70811L7.91606 4.42861C7.92803 4.39245 7.97925 4.39245 7.99132 4.42861Z" fill="#F5F5F5"/>
<path d="M7.99132 5.89074L8.08452 6.17024L8.37914 6.17249C8.4173 6.17282 8.43309 6.22142 8.40242 6.24413L8.16542 6.41917L8.25432 6.70006C8.26587 6.73641 8.22442 6.76655 8.19337 6.74432L7.95369 6.573L7.71401 6.74432C7.68296 6.7665 7.64161 6.73645 7.65305 6.70006L7.74196 6.41917L7.50496 6.24413C7.47429 6.22142 7.49007 6.17282 7.52823 6.17249L7.82286 6.17024L7.91606 5.89074C7.92803 5.85454 7.97925 5.85454 7.99132 5.89074Z" fill="#F5F5F5"/>
<path d="M7.99132 7.3529L8.08452 7.6324L8.37914 7.63464C8.4173 7.63498 8.43309 7.68363 8.40242 7.70628L8.16542 7.88133L8.25432 8.16222C8.26587 8.19857 8.22442 8.22871 8.19337 8.20648L7.95369 8.03516L7.71401 8.20648C7.68296 8.22866 7.64161 8.19857 7.65305 8.16222L7.74196 7.88133L7.50496 7.70628C7.47429 7.68368 7.49007 7.63498 7.52823 7.63464L7.82286 7.6324L7.91606 7.3529C7.92803 7.31669 7.97925 7.31669 7.99132 7.3529Z" fill="#F5F5F5"/>
<path d="M7.99132 8.81496L8.08452 9.09446L8.37914 9.0967C8.4173 9.09704 8.43309 9.14564 8.40242 9.16834L8.16542 9.34339L8.25432 9.62428C8.26587 9.66063 8.22442 9.69077 8.19337 9.66854L7.95369 9.49722L7.71401 9.66854C7.68296 9.69072 7.64161 9.66063 7.65305 9.62428L7.74196 9.34339L7.50496 9.16834C7.47429 9.14564 7.49007 9.09704 7.52823 9.0967L7.82286 9.09446L7.91606 8.81496C7.92803 8.7788 7.97925 8.7788 7.99132 8.81496Z" fill="#F5F5F5"/>
<path d="M9.12658 3.6833L9.21978 3.96281L9.5144 3.96505C9.55256 3.96539 9.56835 4.01404 9.53768 4.03669L9.30067 4.21174L9.38958 4.49263C9.40112 4.52897 9.35967 4.55912 9.32862 4.53689L9.08894 4.36556L8.84927 4.53689C8.81821 4.55907 8.77686 4.52897 8.78831 4.49263L8.87722 4.21174L8.64021 4.03669C8.60954 4.01399 8.62533 3.96539 8.66349 3.96505L8.95811 3.96281L9.05131 3.6833C9.06333 3.64715 9.11451 3.64715 9.12658 3.6833Z" fill="#F5F5F5"/>
<path d="M9.12658 5.1455L9.21978 5.425L9.5144 5.42725C9.55256 5.42758 9.56835 5.47623 9.53768 5.49889L9.30067 5.67393L9.38958 5.95482C9.40112 5.99117 9.35967 6.02131 9.32862 5.99909L9.08894 5.82776L8.84927 5.99909C8.81821 6.02126 8.77686 5.99122 8.78831 5.95482L8.87722 5.67393L8.64021 5.49889C8.60954 5.47628 8.62533 5.42758 8.66349 5.42725L8.95811 5.425L9.05131 5.1455C9.06333 5.1093 9.11451 5.1093 9.12658 5.1455Z" fill="#F5F5F5"/>
<path d="M9.12658 6.6076L9.21978 6.8871L9.5144 6.88934C9.55256 6.88968 9.56835 6.93828 9.53768 6.96098L9.30067 7.13603L9.38958 7.41692C9.40112 7.45327 9.35967 7.48341 9.32862 7.46118L9.08894 7.28985L8.84927 7.46118C8.81821 7.48336 8.77686 7.45327 8.78831 7.41692L8.87722 7.13603L8.64021 6.96098C8.60954 6.93828 8.62533 6.88968 8.66349 6.88934L8.95811 6.8871L9.05131 6.6076C9.06333 6.57139 9.11451 6.57139 9.12658 6.6076Z" fill="#F5F5F5"/>
<path d="M9.12658 8.06966L9.21978 8.34916L9.5144 8.3514C9.55256 8.35174 9.56835 8.40034 9.53768 8.42304L9.30067 8.59809L9.38958 8.87898C9.40112 8.91532 9.35967 8.94547 9.32862 8.92324L9.08894 8.75191L8.84927 8.92324C8.81821 8.94547 8.77686 8.91532 8.78831 8.87898L8.87722 8.59809L8.64021 8.42304C8.60954 8.40034 8.62533 8.35174 8.66349 8.3514L8.95811 8.34916L9.05131 8.06966C9.06333 8.0335 9.11451 8.0335 9.12658 8.06966Z" fill="#F5F5F5"/>
<path d="M10.2613 2.96648L10.3545 3.24599L10.6492 3.24823C10.6873 3.24856 10.7031 3.29721 10.6724 3.31987L10.4354 3.49487L10.5243 3.77576C10.5359 3.8121 10.4944 3.84225 10.4634 3.82002L10.2237 3.64869L9.98403 3.82002C9.95298 3.84225 9.91163 3.8121 9.92308 3.77576L10.012 3.49487L9.77498 3.31987C9.74431 3.29717 9.76009 3.24852 9.79825 3.24823L10.0929 3.24599L10.1861 2.96648C10.1981 2.93028 10.2492 2.93028 10.2613 2.96648Z" fill="#F5F5F5"/>
<path d="M10.2613 4.42861L10.3545 4.70811L10.6492 4.71035C10.6873 4.71069 10.7031 4.75929 10.6724 4.78199L10.4354 4.95704L10.5243 5.23793C10.5359 5.27428 10.4944 5.30442 10.4634 5.28219L10.2237 5.11086L9.98403 5.28219C9.95298 5.30437 9.91163 5.27428 9.92308 5.23793L10.012 4.95704L9.77498 4.78199C9.74431 4.75929 9.76009 4.71069 9.79825 4.71035L10.0929 4.70811L10.1861 4.42861C10.1981 4.39245 10.2492 4.39245 10.2613 4.42861Z" fill="#F5F5F5"/>
<path d="M10.2613 5.89074L10.3545 6.17024L10.6492 6.17249C10.6873 6.17282 10.7031 6.22142 10.6724 6.24413L10.4354 6.41917L10.5243 6.70006C10.5359 6.73641 10.4944 6.76655 10.4634 6.74432L10.2237 6.573L9.98403 6.74432C9.95298 6.7665 9.91163 6.73645 9.92308 6.70006L10.012 6.41917L9.77498 6.24413C9.74431 6.22142 9.76009 6.17282 9.79825 6.17249L10.0929 6.17024L10.1861 5.89074C10.1981 5.85454 10.2492 5.85454 10.2613 5.89074Z" fill="#F5F5F5"/>
<path d="M10.2613 7.3529L10.3545 7.6324L10.6492 7.63464C10.6873 7.63498 10.7031 7.68363 10.6724 7.70628L10.4354 7.88133L10.5243 8.16222C10.5359 8.19857 10.4944 8.22871 10.4634 8.20648L10.2237 8.03516L9.98403 8.20648C9.95298 8.22866 9.91163 8.19857 9.92308 8.16222L10.012 7.88133L9.77498 7.70628C9.74431 7.68368 9.76009 7.63498 9.79825 7.63464L10.0929 7.6324L10.1861 7.3529C10.1981 7.31669 10.2492 7.31669 10.2613 7.3529Z" fill="#F5F5F5"/>
<path d="M10.2613 8.81496L10.3545 9.09446L10.6492 9.0967C10.6873 9.09704 10.7031 9.14564 10.6724 9.16834L10.4354 9.34339L10.5243 9.62428C10.5359 9.66063 10.4944 9.69077 10.4634 9.66854L10.2237 9.49722L9.98403 9.66854C9.95298 9.69072 9.91163 9.66063 9.92308 9.62428L10.012 9.34339L9.77498 9.16834C9.74431 9.14564 9.76009 9.09704 9.79825 9.0967L10.0929 9.09446L10.1861 8.81496C10.1981 8.7788 10.2492 8.7788 10.2613 8.81496Z" fill="#F5F5F5"/>
<path d="M32.2 4.8H33.56V12.32C33.56 13.088 33.768 13.7067 34.184 14.176C34.6 14.6453 35.208 14.88 36.008 14.88C36.808 14.88 37.416 14.6453 37.832 14.176C38.248 13.7067 38.456 13.088 38.456 12.32V4.8H39.816V12.32C39.816 12.8747 39.7253 13.3867 39.544 13.856C39.3733 14.3253 39.1173 14.7307 38.776 15.072C38.4453 15.4133 38.0453 15.68 37.576 15.872C37.1067 16.064 36.584 16.16 36.008 16.16C35.432 16.16 34.9093 16.064 34.44 15.872C33.9707 15.68 33.5653 15.4133 33.224 15.072C32.8933 14.7307 32.6373 14.3253 32.456 13.856C32.2853 13.3867 32.2 12.8747 32.2 12.32V4.8ZM42.7116 12.608C42.9676 13.056 43.2343 13.4507 43.5116 13.792C43.7996 14.1333 44.1196 14.4 44.4716 14.592C44.8236 14.784 45.2236 14.88 45.6716 14.88C46.269 14.88 46.749 14.7147 47.1116 14.384C47.4743 14.0533 47.6556 13.632 47.6556 13.12C47.6556 12.6187 47.5383 12.2187 47.3036 11.92C47.069 11.6213 46.7596 11.3813 46.3756 11.2C46.0023 11.008 45.6023 10.8373 45.1756 10.688C44.8983 10.592 44.589 10.4693 44.2476 10.32C43.9063 10.16 43.581 9.96267 43.2716 9.728C42.9623 9.48267 42.7063 9.184 42.5036 8.832C42.3116 8.48 42.2156 8.048 42.2156 7.536C42.2156 6.98133 42.3543 6.48533 42.6316 6.048C42.909 5.61067 43.293 5.26933 43.7836 5.024C44.2743 4.768 44.8343 4.64 45.4636 4.64C46.0716 4.64 46.5996 4.75733 47.0476 4.992C47.5063 5.216 47.8956 5.50933 48.2156 5.872C48.5356 6.224 48.7863 6.59733 48.9676 6.992L47.7996 7.664C47.661 7.38667 47.485 7.11467 47.2716 6.848C47.0583 6.58133 46.797 6.36267 46.4876 6.192C46.189 6.02133 45.821 5.936 45.3836 5.936C44.7756 5.936 44.333 6.08533 44.0556 6.384C43.7783 6.672 43.6396 6.99733 43.6396 7.36C43.6396 7.66933 43.7196 7.95733 43.8796 8.224C44.0396 8.48 44.3063 8.72533 44.6796 8.96C45.0636 9.184 45.581 9.408 46.2316 9.632C46.5303 9.73867 46.845 9.87733 47.1756 10.048C47.5063 10.2187 47.8103 10.4373 48.0876 10.704C48.3756 10.96 48.6103 11.2747 48.7916 11.648C48.973 12.0107 49.0636 12.448 49.0636 12.96C49.0636 13.4507 48.9676 13.8933 48.7756 14.288C48.5943 14.6827 48.3383 15.0187 48.0076 15.296C47.6876 15.5733 47.3196 15.7867 46.9036 15.936C46.4983 16.0853 46.0716 16.16 45.6236 16.16C45.0156 16.16 44.4503 16.032 43.9276 15.776C43.4156 15.5093 42.9623 15.1627 42.5676 14.736C42.1836 14.2987 41.869 13.8347 41.6236 13.344L42.7116 12.608ZM51.0613 4.8H52.4213V16H51.0613V4.8ZM54.4213 16H51.8133V14.64H54.4213C55.0506 14.64 55.6266 14.544 56.1493 14.352C56.6719 14.1493 57.1199 13.8667 57.4933 13.504C57.8666 13.1307 58.1546 12.6827 58.3573 12.16C58.5599 11.6373 58.6613 11.0507 58.6613 10.4C58.6613 9.74933 58.5599 9.16267 58.3573 8.64C58.1546 8.11733 57.8666 7.67467 57.4933 7.312C57.1199 6.93867 56.6719 6.656 56.1493 6.464C55.6266 6.26133 55.0506 6.16 54.4213 6.16H51.8133V4.8H54.4213C55.5093 4.8 56.4746 5.03467 57.3173 5.504C58.1599 5.97333 58.8213 6.62933 59.3013 7.472C59.7813 8.304 60.0213 9.28 60.0213 10.4C60.0213 11.52 59.7813 12.5013 59.3013 13.344C58.8213 14.176 58.1599 14.8267 57.3173 15.296C56.4746 15.7653 55.5093 16 54.4213 16Z" fill="white"/>
<path d="M64 9L68 13L72 9H64Z" fill="white"/>
</svg>
